<?xml version="1.0" encoding="utf-8"?>
<!-- Generator: Adobe Illustrator 24.1.2, SVG Export Plug-In . SVG Version: 6.00 Build 0)  -->
<svg version="1.1" id="content" xmlns="http://www.w3.org/2000/svg" xmlns:xlink="http://www.w3.org/1999/xlink" x="0px" y="0px"
	 viewBox="0 0 512 512" enable-background="new 0 0 512 512" xml:space="preserve">
<g>
	<g>
		<g>
			<path fill="#0997E5" d="M442.63,103.64v124.43c0,97.58-74.91,177.68-170.37,185.92c-5.36,0.47-10.78,0.7-16.26,0.7
				c-52.66,0-100.24-21.82-134.18-56.91c-32.46-33.57-52.45-79.3-52.45-129.7h37.25v-43.59h87.16v43.59h0.01v-43.59h87.16v43.59
				h115.02c8.59,0,15.54-6.96,15.54-15.55c0-8.59-6.96-15.56-15.54-15.56h-46.66c0-25.77,20.88-46.65,46.66-46.65
				c0-11.87,4.43-22.71,11.74-30.94C416.26,109.72,428.73,103.64,442.63,103.64z"/>
			<rect x="150.2" y="140.89" fill="#0997E5" width="43.58" height="43.58"/>
			<polygon fill="#0997E5" points="280.96,184.47 280.96,140.89 280.96,97.31 237.38,97.31 237.38,140.89 193.79,140.89 
				193.79,184.47 237.38,184.47 			"/>
		</g>
	</g>
	<path fill="#FFFFFF" d="M272.26,413.99c-5.36,0.47-10.78,0.7-16.26,0.7c-52.66,0-100.24-21.82-134.18-56.91
		c7.87-1.93,17.64-5.37,27.77-11.63c12.84-7.92,21.21-17.25,26.07-23.6c7.47,14.61,21.23,37.06,45.02,58.23
		C238.98,397.04,257.42,407.39,272.26,413.99z"/>
	<g>
		<g>
			<path fill="#F2F2F2" d="M272.26,413.99c-5.36,0.47-10.78,0.7-16.26,0.7c-52.66,0-100.24-21.82-134.18-56.91
				c6.09-1.49,13.3-3.89,20.95-7.79c26.23,25.27,59.83,41.91,96.91,45.7C251.38,403.78,262.59,409.69,272.26,413.99z"/>
			<path fill="#1184D3" d="M142.78,349.99c-7.65,3.9-14.86,6.3-20.95,7.79c-32.46-33.56-52.45-79.29-52.45-129.7h17.5
				C90.23,276.41,111.14,319.49,142.78,349.99z"/>
			<path fill="#1184D3" d="M442.63,103.64v124.43c0,97.58-74.91,177.68-170.37,185.92c-9.67-4.3-20.87-10.2-32.57-18.3
				c5.37,0.56,10.81,0.84,16.31,0.84c93.67,0,169.6-81.57,169.6-182.2c0-32.6-7.97-63.2-21.94-89.67c1.23-1.86,2.58-3.63,4.05-5.28
				C416.26,109.72,428.73,103.64,442.63,103.64z"/>
		</g>
	</g>
	<path fill="#00689F" d="M395.98,192.09h-25.75v8.89h-25.79v0.86h51.53c5.89,0,10.67,4.79,10.67,10.68
		c0,5.89-4.79,10.67-10.67,10.67h-25.75v9.75h25.75c11.26,0,20.42-9.16,20.42-20.42C416.39,201.25,407.23,192.09,395.98,192.09z
		 M442.63,98.78c-14.74,0-28.79,6.32-38.55,17.36c-7.33,8.25-11.77,18.59-12.76,29.51c-7.63,0.68-14.78,3.04-21.09,6.7
		c-15.41,8.92-25.79,25.58-25.79,44.62v4.87h51.53c5.89,0,10.67,4.79,10.67,10.68c0,5.89-4.79,10.67-10.67,10.67H285.83V92.44H232.5
		v43.57h-87.17v43.6h-43.58v43.57H64.5v4.87c0,50.2,19.42,95.94,51.13,130.12c0.33,0.53,0.76,0.97,1.25,1.34
		c34.93,36.96,84.38,60.04,139.12,60.04c7.16,0,14.24-0.4,21.2-1.17c90.25-9.98,161.81-82.93,169.59-173.82
		c0.48-5.45,0.71-10.95,0.71-16.51V98.78H442.63z M276.09,223.19h-33.84v-33.83h33.84V223.19z M242.25,102.19h33.84v33.83h-33.84
		V102.19z M242.25,145.76h33.84v33.84h-33.84V145.76z M198.67,145.76h33.84v33.84h-33.84V145.76z M198.67,189.36h33.84v33.83h-33.84
		V189.36z M155.08,145.76h33.84v33.84h-33.84V145.76z M155.08,189.34h33.85v33.85h-33.85V189.34z M111.49,189.36h33.84v33.83h-33.84
		V189.36z M258.41,409.79c-0.8,0.01-1.61,0.02-2.41,0.02c-49.22,0-93.92-19.66-126.68-51.53c1.29-0.37,2.55-0.77,3.82-1.19
		c16.21-5.46,30.49-14.91,42.46-28.09c1.04-1.14,1.43-2.65,1.2-4.06c-0.14-0.87-0.52-1.71-1.13-2.4c-0.12-0.15-0.25-0.28-0.4-0.42
		c-1.99-1.81-5.08-1.67-6.88,0.33c-6.32,6.97-13.36,12.77-21.03,17.38l-3.31,1.9c-4.48,2.44-9.15,4.48-14.02,6.12
		c-2.77,0.94-5.6,1.74-8.45,2.4C93.2,319.07,75.5,278.02,74.31,232.93h321.66c11.26,0,20.42-9.16,20.42-20.42
		c0-11.27-9.16-20.43-20.42-20.43h-41.51c1.33-11.34,7.2-21.31,15.76-28.02c7.1-5.57,16.05-8.9,25.75-8.9h4.87v-4.87
		c0-10.22,3.73-20.07,10.52-27.71c6.83-7.72,16.26-12.6,26.39-13.79v119.26c0,5.56-0.25,11.07-0.74,16.51
		C428.71,336.3,351.97,408.58,258.41,409.79z"/>
	<circle fill="#FFFFFF" cx="214.81" cy="293.51" r="21.01"/>
	<path fill="#1D1D1B" d="M228.11,293.51c0,7.35-5.95,13.3-13.3,13.3c-7.35,0-13.3-5.95-13.3-13.3c0-7.34,5.95-13.29,13.3-13.29
		c0.8,0,1.58,0.07,2.34,0.21c-0.5,1.04-0.78,2.21-0.78,3.45c0,4.45,3.62,8.07,8.07,8.07c1.24,0,2.42-0.28,3.46-0.78
		C228.04,291.93,228.11,292.71,228.11,293.51z"/>
</g>
</svg>
